<svg xmlns="http://www.w3.org/2000/svg" version="1.1" xmlns:xlink="http://www.w3.org/1999/xlink" xmlns:svgjs="http://svgjs.com/svgjs" width="1440" height="560" preserveAspectRatio="none" viewBox="0 0 1440 560">
    <g mask="url(&quot;#SvgjsMask1039&quot;)" fill="none">
        <path d="M1296.267,339.558C1345.261,336.153,1387.746,311.377,1415.23,270.676C1447.237,223.278,1473.667,165.457,1448.521,114.089C1421.02,57.911,1358.738,24.552,1296.267,27.658C1238.195,30.545,1197.279,77.702,1168.154,128.026C1138.959,178.471,1114.546,239.623,1144.74,289.477C1174.277,338.246,1239.388,343.512,1296.267,339.558" fill="rgba(255, 186, 123, 0.56)" class="triangle-float1"></path>
        <path d="M1199.032,675.908C1245.431,677.217,1293.028,659.559,1315.917,619.178C1338.554,579.242,1325.283,531.78,1303.69,491.271C1280.342,447.47,1248.667,400.112,1199.032,399.901C1149.186,399.689,1115.028,445.748,1092.821,490.374C1073.321,529.56,1071.296,574.902,1093.042,612.888C1114.929,651.121,1154.995,674.665,1199.032,675.908" fill="rgba(255, 186, 123, 0.56)" class="triangle-float2"></path>
        <path d="M283.0517732765405 103.42015067196789L317.34561945315363 44.021466707122286 211.10067041757864 22.280039424625414z" fill="rgba(255, 186, 123, 0.56)" class="triangle-float3"></path>
        <path d="M224.999,704.362C267.661,704.549,312.371,692.231,333.919,655.411C355.641,618.294,348.653,570.587,323.844,535.458C302.283,504.927,262.37,500.49,224.999,501.181C189.232,501.842,152.799,509.691,132.287,538.999C108.447,573.063,97.392,618.195,117.725,654.461C138.396,691.331,182.73,704.176,224.999,704.362" fill="rgba(255, 186, 123, 0.56)" class="triangle-float2"></path>
        <path d="M438.97 477.9 a108.3 108.3 0 1 0 216.6 0 a108.3 108.3 0 1 0 -216.6 0z" fill="rgba(255, 186, 123, 0.56)" class="triangle-float3"></path>
        <path d="M164.4788924422212 243.04965037534012L38.12204576414213 243.04965037534012 164.4788924422212 369.4064970534192z" fill="rgba(255, 186, 123, 0.56)" class="triangle-float1"></path>
        <path d="M211.34 186.83 a180.76 180.76 0 1 0 361.52 0 a180.76 180.76 0 1 0 -361.52 0z" fill="rgba(255, 186, 123, 0.56)" class="triangle-float3"></path>
        <path d="M712.99 355.89 a141.39 141.39 0 1 0 282.78 0 a141.39 141.39 0 1 0 -282.78 0z" fill="rgba(255, 186, 123, 0.56)" class="triangle-float1"></path>
        <path d="M1185.7726174969423 235.2812770450242L1132.89734002009 126.87089250966291 1024.4869554847287 179.7461699865151 1077.362232961581 288.1565545218764z" fill="rgba(255, 186, 123, 0.56)" class="triangle-float1"></path>
        <path d="M707.1026053461183 175.21687517595535L660.2014587591259 78.82222275396921 606.4522582896332 155.58403626845754z" fill="rgba(255, 186, 123, 0.56)" class="triangle-float2"></path>
        <path d="M768.062,429.913C793.127,430.1,816.458,415.762,828.06,393.543C838.916,372.752,832.598,348.725,821.14,328.259C809.34,307.181,792.216,286.713,768.062,286.374C743.484,286.029,724.188,305.197,712.341,326.733C700.979,347.388,698.392,371.917,709.594,392.66C721.363,414.453,743.295,429.728,768.062,429.913" fill="rgba(255, 186, 123, 0.56)" class="triangle-float2"></path>
        <path d="M995.7729277591153 164.78546975991338L986.689849450785 60.96540962562162 882.8697893164932 70.04848793395192 891.9528676248235 173.86854806824368z" fill="rgba(255, 186, 123, 0.56)" class="triangle-float1"></path>
        <path d="M693.918,487.088C726.82,486.987,753.212,462.415,768.757,433.417C783.38,406.139,784.876,373.43,769.128,346.786C753.643,320.588,724.272,308.973,693.918,306.799C658.138,304.236,615.752,303.661,597.404,334.486C578.845,365.666,598.88,403.215,618.275,433.881C635.936,461.805,660.878,487.19,693.918,487.088" fill="rgba(255, 186, 123, 0.56)" class="triangle-float3"></path>
        <path d="M-59.97 152.91 a167.68 167.68 0 1 0 335.36 0 a167.68 167.68 0 1 0 -335.36 0z" fill="rgba(255, 186, 123, 0.56)" class="triangle-float2"></path>
        <path d="M1100.2501855605396 112.43704372303517L1005.469201345051 3.40399387622395 991.2171357137285 207.21802793852373z" fill="rgba(255, 186, 123, 0.56)" class="triangle-float2"></path>
        <path d="M821.03 316.22 a177.74 177.74 0 1 0 355.48 0 a177.74 177.74 0 1 0 -355.48 0z" fill="rgba(255, 186, 123, 0.56)" class="triangle-float2"></path>
        <path d="M520.9178148809787 377.1936479602531L632.7795190156925 431.88427437998996 627.0829534867921 323.187328872443z" fill="rgba(255, 186, 123, 0.56)" class="triangle-float3"></path>
        <path d="M365.108,454.119C404.283,453.323,441.532,438.783,463.988,406.673C490.619,368.594,509.921,319.616,487.726,278.791C464.863,236.737,412.832,221.093,365.108,224.794C323.318,228.035,292.292,259.146,271.528,295.556C251.005,331.544,237.953,375.162,259.01,410.841C279.817,446.097,324.178,454.951,365.108,454.119" fill="rgba(255, 186, 123, 0.56)" class="triangle-float3"></path>
        <path d="M573.588,559.164C596.317,558.426,613.268,541.786,625.869,522.855C640.582,500.751,656.753,475.205,645.477,451.165C633.012,424.591,602.864,409.29,573.588,411.394C547.088,413.299,529.659,436.674,517.616,460.355C506.903,481.419,503.425,505.892,515.073,526.454C526.877,547.293,549.651,559.942,573.588,559.164" fill="rgba(255, 186, 123, 0.56)" class="triangle-float3"></path>
        <path d="M1252.11 458.46 a138.83 138.83 0 1 0 277.66 0 a138.83 138.83 0 1 0 -277.66 0z" fill="rgba(255, 186, 123, 0.56)" class="triangle-float3"></path>
    </g>
    <defs>
        <mask id="SvgjsMask1039">
            <rect width="1440" height="560" fill="#ffffff"></rect>
        </mask>
        <style>
            @keyframes float1 {
                0%{transform: translate(0, 0)}
                50%{transform: translate(-10px, 0)}
                100%{transform: translate(0, 0)}
            }

            .triangle-float1 {
                animation: float1 5s infinite;
            }

            @keyframes float2 {
                0%{transform: translate(0, 0)}
                50%{transform: translate(-5px, -5px)}
                100%{transform: translate(0, 0)}
            }

            .triangle-float2 {
                animation: float2 4s infinite;
            }

            @keyframes float3 {
                0%{transform: translate(0, 0)}
                50%{transform: translate(0, -10px)}
                100%{transform: translate(0, 0)}
            }

            .triangle-float3 {
                animation: float3 6s infinite;
            }
        </style>
    </defs>
</svg>